<svg xmlns="http://www.w3.org/2000/svg" xmlns:xlink="http://www.w3.org/1999/xlink" version="1.1" x="0px" y="0px" viewBox="0 0 1024 1024" xml:space="preserve"><g><g><path d="M769.6,833.17H575.95v-30H769.6c18.51,0,33.57-15.06,33.57-33.57V254.4c0-18.51-15.06-33.57-33.57-33.57H575.95v-30H769.6    c35.05,0,63.57,28.52,63.57,63.57v515.2C833.17,804.65,804.65,833.17,769.6,833.17z"/></g><g><path d="M432.91,833.17h-40v-30h40V833.17z M332.91,833.17h-40v-30h40V833.17z M227.18,827.06    c-15.95-7.57-28.13-21.54-33.42-38.35l28.62-9.01c2.79,8.87,9.23,16.26,17.67,20.26L227.18,827.06z M220.83,724.43h-30v-40h30    V724.43z M220.83,624.43h-30v-40h30V624.43z M220.83,524.43h-30v-40h30V524.43z M220.83,424.43h-30v-40h30V424.43z M220.83,324.43    h-30v-40h30V324.43z M227.01,235l-24.46-17.37c10.24-14.41,26.12-23.98,43.58-26.25l3.87,29.75    C240.8,222.32,232.42,227.38,227.01,235z M448.05,220.84h-40v-30h40V220.84z M348.05,220.84h-40v-30h40V220.84z"/></g><g><rect x="497" y="143.44" width="30" height="30"/></g></g></svg>