<svg xmlns="http://www.w3.org/2000/svg" xmlns:xlink="http://www.w3.org/1999/xlink" version="1.1" x="0px" y="0px" viewBox="0 0 1024 1024" style="enable-background:new 0 0 1024 1024;" xml:space="preserve"><g><g><path d="M448.05,833.17H254.4c-35.05,0-63.57-28.52-63.57-63.57V254.4c0-35.05,28.52-63.57,63.57-63.57h193.65v30H254.4    c-18.51,0-33.57,15.06-33.57,33.57v515.2c0,18.51,15.06,33.57,33.57,33.57h193.65V833.17z"/></g><g><path d="M731.09,833.17h-40v-30h40V833.17z M631.09,833.17h-40v-30h40V833.17z M796.82,827.06l-12.86-27.11    c8.43-4,14.87-11.38,17.67-20.26l28.62,9.01C824.95,805.52,812.76,819.49,796.82,827.06z M833.17,724.43h-30v-40h30V724.43z     M833.17,624.43h-30v-40h30V624.43z M833.17,524.43h-30v-40h30V524.43z M833.17,424.43h-30v-40h30V424.43z M833.17,324.43h-30v-40    h30V324.43z M796.99,235c-5.41-7.62-13.8-12.68-23-13.88l3.87-29.75c17.46,2.27,33.35,11.84,43.58,26.25L796.99,235z     M715.95,220.84h-40v-30h40V220.84z M615.95,220.84h-40v-30h40V220.84z"/></g><g><rect x="497" y="143.44" width="30" height="30"/></g></g></svg>