# Blender v3.3.0 OBJ File: 'AJUSTE_CUBOS_FINAL1.blend'
# www.blender.org
mtllib VIERNES_CUBOCOMUN.mtl
o NUCLEARCUBE_Cube
v -0.490132 -0.501230 0.490132
v -0.490132 -0.491338 0.500000
v -0.500000 -0.491338 0.490132
v -0.490132 -0.500477 0.493908
v -0.490132 -0.498333 0.497110
v -0.493908 -0.500477 0.490132
v -0.494003 -0.499568 0.494003
v -0.493806 -0.497830 0.496608
v -0.495829 -0.497049 0.495829
v -0.493908 -0.491338 0.499249
v -0.497110 -0.491338 0.497110
v -0.490132 -0.495123 0.499249
v -0.494003 -0.495218 0.498342
v -0.496608 -0.495021 0.496608
v -0.499249 -0.495123 0.490132
v -0.497110 -0.498333 0.490132
v -0.499249 -0.491338 0.493908
v -0.498342 -0.495218 0.494003
v -0.496608 -0.497830 0.493806
v -0.490132 0.182399 0.500000
v -0.490132 0.195206 0.490569
v -0.500000 0.184989 0.490132
v -0.490132 0.186457 0.499349
v -0.490132 0.190315 0.497328
v -0.493908 0.182547 0.499182
v -0.494003 0.186742 0.498379
v -0.493806 0.189883 0.496745
v -0.495829 0.189274 0.495922
v -0.493908 0.194378 0.490469
v -0.497110 0.192146 0.490350
v -0.490132 0.193387 0.494245
v -0.494003 0.192374 0.494232
v -0.496608 0.190619 0.493944
v -0.499249 0.183948 0.493841
v -0.497110 0.183091 0.497019
v -0.499249 0.188849 0.490232
v -0.498342 0.187881 0.494039
v -0.496608 0.186983 0.496621
v -0.490132 -0.501230 -0.490132
v -0.500000 -0.491338 -0.490132
v -0.490132 -0.491338 -0.500000
v -0.493908 -0.500477 -0.490132
v -0.497110 -0.498333 -0.490132
v -0.490132 -0.500477 -0.493908
v -0.494003 -0.499568 -0.494003
v -0.496608 -0.497830 -0.493806
v -0.495829 -0.497049 -0.495829
v -0.499249 -0.491338 -0.493908
v -0.497110 -0.491338 -0.497110
v -0.499249 -0.495123 -0.490132
v -0.498342 -0.495218 -0.494003
v -0.496608 -0.495021 -0.496608
v -0.490132 -0.495123 -0.499249
v -0.490132 -0.498333 -0.497110
v -0.493908 -0.491338 -0.499249
v -0.494003 -0.495218 -0.498342
v -0.493806 -0.497830 -0.496608
v -0.490132 0.498317 -0.490569
v -0.490132 0.491338 -0.500000
v -0.500000 0.487830 -0.490132
v -0.490132 0.498770 -0.494245
v -0.490132 0.497602 -0.497328
v -0.493908 0.497427 -0.490469
v -0.494003 0.497748 -0.494232
v -0.493806 0.496810 -0.496745
v -0.495829 0.495692 -0.495922
v -0.493908 0.490979 -0.499182
v -0.497110 0.490187 -0.497019
v -0.490132 0.494993 -0.499349
v -0.494003 0.494679 -0.498379
v -0.496608 0.493833 -0.496621
v -0.499249 0.491752 -0.490232
v -0.497110 0.495122 -0.490350
v -0.499249 0.489081 -0.493841
v -0.498342 0.493136 -0.494039
v -0.496608 0.495815 -0.493944
v 0.490132 -0.501230 0.490132
v 0.500000 -0.491338 0.490132
v 0.490132 -0.491338 0.500000
v 0.493908 -0.500477 0.490132
v 0.497110 -0.498333 0.490132
v 0.490132 -0.500477 0.493908
v 0.494003 -0.499568 0.494003
v 0.496608 -0.497830 0.493806
v 0.495829 -0.497049 0.495829
v 0.499249 -0.491338 0.493908
v 0.497110 -0.491338 0.497110
v 0.499249 -0.495123 0.490132
v 0.498342 -0.495218 0.494003
v 0.496608 -0.495021 0.496608
v 0.490132 -0.495123 0.499249
v 0.490132 -0.498333 0.497110
v 0.493908 -0.491338 0.499249
v 0.494003 -0.495218 0.498342
v 0.493806 -0.497830 0.496608
v 0.490132 0.195206 0.490569
v 0.490132 0.182399 0.500000
v 0.500000 0.184989 0.490132
v 0.490132 0.193387 0.494245
v 0.490132 0.190315 0.497328
v 0.493908 0.194378 0.490469
v 0.494003 0.192374 0.494232
v 0.493806 0.189883 0.496745
v 0.495829 0.189274 0.495922
v 0.493908 0.182547 0.499182
v 0.497110 0.183091 0.497019
v 0.490132 0.186457 0.499349
v 0.494003 0.186742 0.498379
v 0.496608 0.186983 0.496621
v 0.499249 0.188849 0.490232
v 0.497110 0.192146 0.490350
v 0.499249 0.183948 0.493841
v 0.498342 0.187881 0.494039
v 0.496608 0.190619 0.493944
v 0.490132 -0.501230 -0.490132
v 0.490132 -0.491338 -0.500000
v 0.500000 -0.491338 -0.490132
v 0.490132 -0.500477 -0.493908
v 0.490132 -0.498333 -0.497110
v 0.493908 -0.500477 -0.490132
v 0.494003 -0.499568 -0.494003
v 0.493806 -0.497830 -0.496608
v 0.495829 -0.497049 -0.495829
v 0.493908 -0.491338 -0.499249
v 0.497110 -0.491338 -0.497110
v 0.490132 -0.495123 -0.499249
v 0.494003 -0.495218 -0.498342
v 0.496608 -0.495021 -0.496608
v 0.499249 -0.495123 -0.490132
v 0.497110 -0.498333 -0.490132
v 0.499249 -0.491338 -0.493908
v 0.498342 -0.495218 -0.494003
v 0.496608 -0.497830 -0.493806
v 0.490132 0.498317 -0.490569
v 0.500000 0.487830 -0.490132
v 0.490132 0.491338 -0.500000
v 0.493908 0.497427 -0.490469
v 0.497110 0.495122 -0.490350
v 0.490132 0.498770 -0.494245
v 0.494003 0.497748 -0.494232
v 0.496608 0.495815 -0.493944
v 0.495829 0.495692 -0.495922
v 0.499249 0.489081 -0.493841
v 0.497110 0.490187 -0.497019
v 0.499249 0.491752 -0.490232
v 0.498342 0.493136 -0.494039
v 0.496608 0.493833 -0.496621
v 0.490132 0.494993 -0.499349
v 0.490132 0.497602 -0.497328
v 0.493908 0.490979 -0.499182
v 0.494003 0.494679 -0.498379
v 0.493806 0.496810 -0.496745
vt 0.457061 0.113953
vt 0.457061 0.662782
vt 0.023852 0.662782
vt 0.023852 0.113953
vt 0.457061 0.113953
vt 0.457061 0.911587
vt 0.023852 0.664891
vt 0.023852 0.113953
vt 0.994437 0.987975
vt 0.491048 0.987975
vt 0.491048 0.013768
vt 0.994437 0.013768
vt 0.023852 0.113953
vt 0.023852 0.664891
vt 0.457061 0.911587
vt 0.457061 0.113953
vt 0.023852 0.113953
vt 0.023852 0.914444
vt 0.457061 0.914444
vt 0.457061 0.113953
vt 0.023852 0.048669
vt 0.023852 0.045585
vt 0.022141 0.045508
vt 0.022183 0.048669
vt 0.023852 0.042971
vt 0.022228 0.043381
vt 0.020990 0.045669
vt 0.020768 0.048669
vt 0.021334 0.044017
vt 0.022183 0.113953
vt 0.022141 0.110792
vt 0.023852 0.110869
vt 0.020768 0.113953
vt 0.020990 0.110952
vt 0.022228 0.108665
vt 0.023852 0.108255
vt 0.021334 0.109301
vt 0.023852 0.110869
vt 0.022141 0.110792
vt 0.022183 0.113953
vt 0.023852 0.108255
vt 0.022228 0.108665
vt 0.023852 0.666087
vt 0.022141 0.666320
vt 0.022183 0.662902
vt 0.023852 0.669230
vt 0.022228 0.668878
vt 0.020990 0.666516
vt 0.020768 0.663345
vt 0.021334 0.668382
vt 0.023852 0.048312
vt 0.022183 0.048394
vt 0.022141 0.045321
vt 0.023852 0.045310
vt 0.020768 0.048491
vt 0.020990 0.045556
vt 0.023852 0.671733
vt 0.022141 0.670907
vt 0.020990 0.669477
vt 0.022212 0.664044
vt 0.022125 0.667247
vt 0.023807 0.668036
vt 0.022167 0.669477
vt 0.023755 0.670722
vt 0.023852 0.849160
vt 0.022183 0.849160
vt 0.022141 0.852322
vt 0.023852 0.852244
vt 0.020768 0.849160
vt 0.020990 0.852161
vt 0.022228 0.854449
vt 0.023852 0.854859
vt 0.021334 0.853813
vt 0.458729 0.113953
vt 0.458771 0.110792
vt 0.457061 0.110869
vt 0.460144 0.113953
vt 0.459923 0.110952
vt 0.458684 0.108665
vt 0.457061 0.108255
vt 0.459578 0.109301
vt 0.023852 0.110869
vt 0.022141 0.110792
vt 0.022183 0.113953
vt 0.023852 0.108255
vt 0.022228 0.108665
vt 0.020990 0.110952
vt 0.020768 0.113953
vt 0.021334 0.109301
vt 0.023852 0.849518
vt 0.023852 0.852520
vt 0.022141 0.852509
vt 0.022183 0.849436
vt 0.023852 0.855037
vt 0.022228 0.854561
vt 0.020990 0.852273
vt 0.020768 0.849339
vt 0.021334 0.853888
vt 0.022183 0.914152
vt 0.022141 0.917166
vt 0.023852 0.917422
vt 0.020768 0.913507
vt 0.020990 0.916477
vt 0.022228 0.918902
vt 0.023852 0.919548
vt 0.021334 0.917991
vt 0.457105 0.914782
vt 0.458788 0.915909
vt 0.458700 0.912606
vt 0.457157 0.917527
vt 0.458745 0.918091
vt 0.459928 0.916477
vt 0.460104 0.913507
vt 0.459619 0.917991
vt 0.457061 0.048669
vt 0.458729 0.048669
vt 0.458771 0.045508
vt 0.457061 0.045585
vt 0.460144 0.048669
vt 0.459923 0.045669
vt 0.458685 0.043381
vt 0.457061 0.042971
vt 0.459578 0.044017
vt 0.022183 0.113953
vt 0.022141 0.110792
vt 0.023852 0.110869
vt 0.020768 0.113953
vt 0.020990 0.110952
vt 0.022228 0.108665
vt 0.023852 0.108255
vt 0.021334 0.109301
vt 0.457061 0.110869
vt 0.458771 0.110792
vt 0.458729 0.113953
vt 0.457061 0.108255
vt 0.458685 0.108665
vt 0.459923 0.110952
vt 0.460144 0.113953
vt 0.459578 0.109301
vt 0.457061 0.048312
vt 0.457061 0.045310
vt 0.458771 0.045321
vt 0.458729 0.048394
vt 0.457061 0.671733
vt 0.457061 0.669230
vt 0.458685 0.668878
vt 0.458771 0.670907
vt 0.459923 0.045556
vt 0.460144 0.048491
vt 0.459578 0.668382
vt 0.459923 0.669477
vt 0.458729 0.662902
vt 0.458771 0.666320
vt 0.457061 0.666087
vt 0.460144 0.663345
vt 0.459923 0.666516
vt 0.023807 0.668036
vt 0.022125 0.667247
vt 0.022212 0.664044
vt 0.023755 0.670722
vt 0.022167 0.669477
vt 0.020984 0.666516
vt 0.020808 0.663345
vt 0.021293 0.668382
vt 0.457061 0.849160
vt 0.457061 0.852244
vt 0.458771 0.852322
vt 0.458729 0.849160
vt 0.457061 0.854859
vt 0.458685 0.854449
vt 0.459923 0.852161
vt 0.460144 0.849160
vt 0.459578 0.853813
vt 0.458729 0.113953
vt 0.458771 0.110792
vt 0.457061 0.110869
vt 0.460144 0.113953
vt 0.459923 0.110952
vt 0.458685 0.108665
vt 0.457061 0.108255
vt 0.459578 0.109301
vt 0.457061 0.110869
vt 0.458771 0.110792
vt 0.458729 0.113953
vt 0.457061 0.108255
vt 0.458684 0.108665
vt 0.457061 0.849518
vt 0.458729 0.849436
vt 0.458771 0.852509
vt 0.457061 0.852520
vt 0.460144 0.849339
vt 0.459923 0.852273
vt 0.458685 0.854561
vt 0.457061 0.855037
vt 0.459578 0.853888
vt 0.458700 0.912606
vt 0.458788 0.915909
vt 0.457105 0.914782
vt 0.460104 0.913507
vt 0.459928 0.916477
vt 0.458745 0.918091
vt 0.457157 0.917527
vt 0.459619 0.917991
vt 0.457061 0.917422
vt 0.458771 0.917166
vt 0.458729 0.914152
vt 0.457061 0.919548
vt 0.458685 0.918902
vt 0.509997 0.077079
vt 0.509997 0.948551
vt 0.508182 0.948462
vt 0.508182 0.077168
vt 0.506643 0.948357
vt 0.506643 0.077273
vt 0.509892 0.754074
vt 0.981304 1.022525
vt 0.981247 1.019539
vt 0.509949 0.751153
vt 0.981199 1.016064
vt 0.509997 0.747733
vt 0.944835 0.836778
vt 0.944835 0.035573
vt 0.946504 0.035655
vt 0.946504 0.836696
vt 0.947919 0.035751
vt 0.947919 0.836599
vt 0.944932 0.904788
vt 0.511530 0.657982
vt 0.511582 0.655296
vt 0.944880 0.902042
vt 0.511626 0.652152
vt 0.944835 0.898847
vt 0.023852 0.042792
vt 0.457061 0.042792
vn 0.0000 0.0000 1.0000
vn 1.0000 0.0000 0.0000
vn 0.0000 0.9554 0.2952
vn -1.0000 0.0000 0.0000
vn 0.0000 0.0000 -1.0000
vn -0.2054 -0.9569 0.2054
vn -0.1821 -0.8145 0.5508
vn -0.5508 -0.8145 0.1821
vn -0.4937 -0.7159 0.4937
vn -0.2050 -0.2045 0.9572
vn -0.5500 -0.1814 0.8152
vn -0.1820 -0.5490 0.8158
vn -0.4934 -0.4922 0.7172
vn -0.9572 -0.2045 0.2050
vn -0.8158 -0.5490 0.1820
vn -0.8152 -0.1814 0.5500
vn -0.7172 -0.4922 0.4934
vn -0.2156 0.1670 0.9621
vn -0.1877 0.4587 0.8685
vn -0.5392 0.1502 0.8287
vn -0.4677 0.4184 0.7786
vn -0.2159 0.8696 0.4441
vn -0.5400 0.7467 0.3884
vn -0.1878 0.6933 0.6957
vn -0.4679 0.6194 0.6304
vn -0.9465 0.1914 0.2599
vn -0.7963 0.1582 0.5838
vn -0.7968 0.5103 0.3237
vn -0.6817 0.4338 0.5891
vn -0.2054 -0.9569 -0.2054
vn -0.5508 -0.8145 -0.1821
vn -0.1821 -0.8145 -0.5508
vn -0.4937 -0.7159 -0.4937
vn -0.9572 -0.2045 -0.2050
vn -0.8152 -0.1814 -0.5500
vn -0.8158 -0.5490 -0.1820
vn -0.7172 -0.4922 -0.4934
vn -0.2049 -0.2044 -0.9572
vn -0.1820 -0.5490 -0.8158
vn -0.5500 -0.1814 -0.8152
vn -0.4934 -0.4922 -0.7172
vn -0.2397 0.9653 0.1034
vn -0.2451 0.9046 -0.3488
vn -0.5841 0.8078 0.0789
vn -0.5742 0.7601 -0.3041
vn -0.2392 0.1853 -0.9531
vn -0.5832 0.1624 -0.7959
vn -0.2448 0.5983 -0.7630
vn -0.5738 0.5133 -0.6381
vn -0.9698 0.1961 -0.1451
vn -0.8421 0.5393 -0.0089
vn -0.8415 0.1672 -0.5137
vn -0.7840 0.4990 -0.3693
vn 0.2054 -0.9569 0.2054
vn 0.5508 -0.8145 0.1821
vn 0.1821 -0.8145 0.5508
vn 0.4937 -0.7159 0.4937
vn 0.9572 -0.2045 0.2050
vn 0.8152 -0.1814 0.5500
vn 0.8158 -0.5490 0.1820
vn 0.7172 -0.4922 0.4934
vn 0.2049 -0.2044 0.9572
vn 0.1820 -0.5490 0.8158
vn 0.5500 -0.1814 0.8152
vn 0.4934 -0.4922 0.7172
vn 0.2159 0.8696 0.4441
vn 0.1878 0.6933 0.6957
vn 0.5400 0.7467 0.3884
vn 0.4679 0.6194 0.6304
vn 0.2156 0.1670 0.9621
vn 0.5392 0.1502 0.8287
vn 0.1877 0.4587 0.8685
vn 0.4677 0.4184 0.7786
vn 0.9465 0.1914 0.2599
vn 0.7968 0.5103 0.3237
vn 0.7963 0.1582 0.5838
vn 0.6817 0.4338 0.5891
vn 0.2054 -0.9569 -0.2054
vn 0.1821 -0.8145 -0.5508
vn 0.5508 -0.8145 -0.1821
vn 0.4937 -0.7159 -0.4937
vn 0.2050 -0.2045 -0.9572
vn 0.5500 -0.1814 -0.8152
vn 0.1820 -0.5490 -0.8158
vn 0.4934 -0.4922 -0.7172
vn 0.9572 -0.2045 -0.2050
vn 0.8158 -0.5490 -0.1820
vn 0.8152 -0.1814 -0.5500
vn 0.7172 -0.4922 -0.4934
vn 0.2397 0.9653 0.1034
vn 0.5841 0.8078 0.0789
vn 0.2451 0.9046 -0.3488
vn 0.5742 0.7601 -0.3041
vn 0.9698 0.1961 -0.1451
vn 0.8415 0.1672 -0.5137
vn 0.8421 0.5393 -0.0089
vn 0.7840 0.4990 -0.3693
vn 0.2392 0.1853 -0.9531
vn 0.2448 0.5983 -0.7630
vn 0.5832 0.1624 -0.7959
vn 0.5738 0.5133 -0.6381
vn -0.1956 -0.9807 0.0000
vn -0.5565 -0.8308 0.0000
vn -0.8321 -0.5546 0.0000
vn -0.9809 -0.1946 0.0000
vn -0.2035 0.0000 0.9791
vn -0.5577 0.0001 0.8301
vn -0.8305 0.0001 0.5570
vn -0.9804 0.0000 0.1968
vn -0.2122 0.9337 0.2885
vn -0.5606 0.7912 0.2444
vn -0.8301 0.5327 0.1646
vn -0.9802 0.1892 0.0585
vn -0.2035 0.0000 -0.9791
vn -0.5577 0.0001 -0.8301
vn -0.8305 0.0000 -0.5570
vn -0.9804 0.0000 -0.1968
vn 0.0000 -0.9807 -0.1956
vn 0.0000 -0.8308 -0.5565
vn 0.0000 -0.5546 -0.8321
vn 0.0000 -0.1946 -0.9809
vn 0.0000 0.9925 0.1223
vn 0.0000 0.9352 -0.3541
vn 0.0000 0.6122 -0.7907
vn 0.0000 0.1753 -0.9845
vn 0.9804 0.0000 -0.1968
vn 0.8305 0.0000 -0.5570
vn 0.5577 0.0001 -0.8301
vn 0.2035 0.0000 -0.9791
vn 0.1956 -0.9807 0.0000
vn 0.5565 -0.8308 0.0000
vn 0.8321 -0.5546 0.0000
vn 0.9809 -0.1946 0.0000
vn 0.2122 0.9337 0.2885
vn 0.5606 0.7912 0.2444
vn 0.8301 0.5327 0.1646
vn 0.9802 0.1892 0.0585
vn 0.2035 0.0000 0.9791
vn 0.5577 0.0001 0.8301
vn 0.8305 0.0001 0.5570
vn 0.9804 0.0000 0.1968
vn 0.0000 -0.9807 0.1956
vn 0.0000 -0.8308 0.5565
vn 0.0000 -0.5546 0.8321
vn 0.0000 -0.1946 0.9809
vn 0.0000 0.8963 0.4434
vn 0.0000 0.7084 0.7059
vn 0.0000 0.4640 0.8859
vn 0.0000 0.1584 0.9874
vn 0.0000 -1.0000 0.0000
usemtl Textura1
s off
f 79/1/1 97/2/1 20/3/1 2/4/1
f 117/5/2 135/6/2 98/7/2 78/8/2
f 134/9/3 58/10/3 21/11/3 96/12/3
f 3/13/4 22/14/4 60/15/4 40/16/4
f 41/17/5 59/18/5 136/19/5 116/20/5
f 1/21/6 4/22/6 7/23/6 6/24/6
f 4/22/7 5/25/7 8/26/7 7/23/7
f 6/24/8 7/23/8 19/27/8 16/28/8
f 7/23/9 8/26/9 9/29/9 19/27/9
f 2/4/10 10/30/10 13/31/10 12/32/10
f 10/30/11 11/33/11 14/34/11 13/31/11
f 12/32/12 13/31/12 8/35/12 5/36/12
f 13/31/13 14/34/13 9/37/13 8/35/13
f 3/13/14 15/38/14 18/39/14 17/40/14
f 15/38/15 16/41/15 19/42/15 18/39/15
f 17/40/16 18/39/16 14/34/16 11/33/16
f 18/39/17 19/42/17 9/37/17 14/34/17
f 20/3/18 23/43/18 26/44/18 25/45/18
f 23/43/19 24/46/19 27/47/19 26/44/19
f 25/45/20 26/44/20 38/48/20 35/49/20
f 26/44/21 27/47/21 28/50/21 38/48/21
f 21/51/22 29/52/22 32/53/22 31/54/22
f 29/52/23 30/55/23 33/56/23 32/53/23
f 31/57/24 32/58/24 27/47/24 24/46/24
f 32/58/25 33/59/25 28/50/25 27/47/25
f 22/14/26 34/60/26 37/61/26 36/62/26
f 34/60/27 35/49/27 38/48/27 37/61/27
f 36/62/28 37/61/28 33/63/28 30/64/28
f 37/61/29 38/48/29 28/50/29 33/63/29
f 39/65/30 42/66/30 45/67/30 44/68/30
f 42/66/31 43/69/31 46/70/31 45/67/31
f 44/68/32 45/67/32 57/71/32 54/72/32
f 45/67/33 46/70/33 47/73/33 57/71/33
f 40/16/34 48/74/34 51/75/34 50/76/34
f 48/74/35 49/77/35 52/78/35 51/75/35
f 50/76/36 51/75/36 46/79/36 43/80/36
f 51/75/37 52/78/37 47/81/37 46/79/37
f 41/17/38 53/82/38 56/83/38 55/84/38
f 53/82/39 54/85/39 57/86/39 56/83/39
f 55/84/40 56/83/40 52/87/40 49/88/40
f 56/83/41 57/86/41 47/89/41 52/87/41
f 58/90/42 61/91/42 64/92/42 63/93/42
f 61/91/43 62/94/43 65/95/43 64/92/43
f 63/93/44 64/92/44 76/96/44 73/97/44
f 64/92/45 65/95/45 66/98/45 76/96/45
f 59/18/46 67/99/46 70/100/46 69/101/46
f 67/99/47 68/102/47 71/103/47 70/100/47
f 69/101/48 70/100/48 65/104/48 62/105/48
f 70/100/49 71/103/49 66/106/49 65/104/49
f 60/15/50 72/107/50 75/108/50 74/109/50
f 72/107/51 73/110/51 76/111/51 75/108/51
f 74/109/52 75/108/52 71/112/52 68/113/52
f 75/108/53 76/111/53 66/114/53 71/112/53
f 77/115/54 80/116/54 83/117/54 82/118/54
f 80/116/55 81/119/55 84/120/55 83/117/55
f 82/118/56 83/117/56 95/121/56 92/122/56
f 83/117/57 84/120/57 85/123/57 95/121/57
f 78/8/58 86/124/58 89/125/58 88/126/58
f 86/124/59 87/127/59 90/128/59 89/125/59
f 88/126/60 89/125/60 84/129/60 81/130/60
f 89/125/61 90/128/61 85/131/61 84/129/61
f 79/1/62 91/132/62 94/133/62 93/134/62
f 91/132/63 92/135/63 95/136/63 94/133/63
f 93/134/64 94/133/64 90/137/64 87/138/64
f 94/133/65 95/136/65 85/139/65 90/137/65
f 96/140/66 99/141/66 102/142/66 101/143/66
f 99/144/67 100/145/67 103/146/67 102/147/67
f 101/143/68 102/142/68 114/148/68 111/149/68
f 102/147/69 103/146/69 104/150/69 114/151/69
f 97/2/70 105/152/70 108/153/70 107/154/70
f 105/152/71 106/155/71 109/156/71 108/153/71
f 107/154/72 108/153/72 103/146/72 100/145/72
f 108/153/73 109/156/73 104/150/73 103/146/73
f 98/7/74 110/157/74 113/158/74 112/159/74
f 110/157/75 111/160/75 114/161/75 113/158/75
f 112/159/76 113/158/76 109/162/76 106/163/76
f 113/158/77 114/161/77 104/164/77 109/162/77
f 115/165/78 118/166/78 121/167/78 120/168/78
f 118/166/79 119/169/79 122/170/79 121/167/79
f 120/168/80 121/167/80 133/171/80 130/172/80
f 121/167/81 122/170/81 123/173/81 133/171/81
f 116/20/82 124/174/82 127/175/82 126/176/82
f 124/174/83 125/177/83 128/178/83 127/175/83
f 126/176/84 127/175/84 122/179/84 119/180/84
f 127/175/85 128/178/85 123/181/85 122/179/85
f 117/5/86 129/182/86 132/183/86 131/184/86
f 129/182/87 130/185/87 133/186/87 132/183/87
f 131/184/88 132/183/88 128/178/88 125/177/88
f 132/183/89 133/186/89 123/181/89 128/178/89
f 134/187/90 137/188/90 140/189/90 139/190/90
f 137/188/91 138/191/91 141/192/91 140/189/91
f 139/190/92 140/189/92 152/193/92 149/194/92
f 140/189/93 141/192/93 142/195/93 152/193/93
f 135/6/94 143/196/94 146/197/94 145/198/94
f 143/196/95 144/199/95 147/200/95 146/197/95
f 145/198/96 146/197/96 141/201/96 138/202/96
f 146/197/97 147/200/97 142/203/97 141/201/97
f 136/19/98 148/204/98 151/205/98 150/206/98
f 148/204/99 149/207/99 152/208/99 151/205/99
f 150/206/100 151/205/100 147/200/100 144/199/100
f 151/205/101 152/208/101 142/203/101 147/200/101
f 39/65/102 1/21/102 6/24/102 42/66/102
f 42/66/103 6/24/103 16/28/103 43/69/103
f 43/80/104 16/41/104 15/38/104 50/76/104
f 50/76/105 15/38/105 3/13/105 40/16/105
f 2/4/106 20/3/106 25/45/106 10/30/106
f 10/30/107 25/45/107 35/49/107 11/33/107
f 11/33/108 35/49/108 34/60/108 17/40/108
f 17/40/109 34/60/109 22/14/109 3/13/109
f 21/209/110 58/210/110 63/211/110 29/212/110
f 29/212/111 63/211/111 73/213/111 30/214/111
f 30/215/112 73/216/112 72/217/112 36/218/112
f 36/218/113 72/217/113 60/219/113 22/220/113
f 59/18/114 41/17/114 55/84/114 67/99/114
f 67/99/115 55/84/115 49/88/115 68/102/115
f 68/113/116 49/77/116 48/74/116 74/109/116
f 74/109/117 48/74/117 40/16/117 60/15/117
f 115/165/118 39/65/118 44/68/118 118/166/118
f 118/166/119 44/68/119 54/72/119 119/169/119
f 119/180/120 54/85/120 53/82/120 126/176/120
f 126/176/121 53/82/121 41/17/121 116/20/121
f 58/90/122 134/187/122 139/190/122 61/91/122
f 61/91/123 139/190/123 149/194/123 62/94/123
f 62/105/124 149/207/124 148/204/124 69/101/124
f 69/101/125 148/204/125 136/19/125 59/18/125
f 135/6/126 117/5/126 131/184/126 143/196/126
f 143/196/127 131/184/127 125/177/127 144/199/127
f 144/199/128 125/177/128 124/174/128 150/206/128
f 150/206/129 124/174/129 116/20/129 136/19/129
f 77/115/130 115/165/130 120/168/130 80/116/130
f 80/116/131 120/168/131 130/172/131 81/119/131
f 81/130/132 130/185/132 129/182/132 88/126/132
f 88/126/133 129/182/133 117/5/133 78/8/133
f 134/221/134 96/222/134 101/223/134 137/224/134
f 137/224/135 101/223/135 111/225/135 138/226/135
f 138/227/136 111/228/136 110/229/136 145/230/136
f 145/230/137 110/229/137 98/231/137 135/232/137
f 97/2/138 79/1/138 93/134/138 105/152/138
f 105/152/139 93/134/139 87/138/139 106/155/139
f 106/163/140 87/127/140 86/124/140 112/159/140
f 112/159/141 86/124/141 78/8/141 98/7/141
f 1/21/142 77/115/142 82/118/142 4/22/142
f 4/22/143 82/118/143 92/122/143 5/25/143
f 5/36/144 92/135/144 91/132/144 12/32/144
f 12/32/145 91/132/145 79/1/145 2/4/145
f 96/140/146 21/51/146 31/54/146 99/141/146
f 99/141/147 31/54/147 24/233/147 100/234/147
f 100/145/148 24/46/148 23/43/148 107/154/148
f 107/154/149 23/43/149 20/3/149 97/2/149
f 39/65/150 115/165/150 77/115/150 1/21/150
