<svg width="86" height="86" viewBox="0 0 86 86" fill="none" xmlns="http://www.w3.org/2000/svg">
<g id="Frame 49">
<rect width="86" height="86" rx="4" fill="#E8E8E8"/>
<g id="attach_money">
<mask id="mask0_423_489" style="mask-type:alpha" maskUnits="userSpaceOnUse" x="16" y="16" width="54" height="54">
<rect id="Bounding box" x="16" y="16" width="54" height="54" fill="#D9D9D9"/>
</mask>
<g mask="url(#mask0_423_489)">
<path id="attach_money_2" d="M41.3688 63.25V58.525C39.2313 58.15 37.4781 57.3344 36.1094 56.0781C34.7406 54.8219 33.7563 53.2375 33.1562 51.325L36.3062 50.0312C36.9437 51.8312 37.8625 53.1719 39.0625 54.0531C40.2625 54.9344 41.7063 55.375 43.3938 55.375C45.1938 55.375 46.675 54.925 47.8375 54.025C49 53.125 49.5813 51.8875 49.5813 50.3125C49.5813 48.6625 49.0656 47.3875 48.0344 46.4875C47.0031 45.5875 45.0625 44.6687 42.2125 43.7312C39.5125 42.8687 37.4969 41.725 36.1656 40.3C34.8344 38.875 34.1688 37.0938 34.1688 34.9563C34.1688 32.8938 34.8344 31.1687 36.1656 29.7812C37.4969 28.3938 39.2313 27.6063 41.3688 27.4188V22.75H44.7438V27.4188C46.4313 27.6063 47.8844 28.1594 49.1031 29.0781C50.3219 29.9969 51.25 31.1687 51.8875 32.5938L48.7375 33.9437C48.2125 32.7437 47.5094 31.8719 46.6281 31.3281C45.7469 30.7844 44.5938 30.5125 43.1688 30.5125C41.4438 30.5125 40.075 30.9062 39.0625 31.6938C38.05 32.4813 37.5438 33.55 37.5438 34.9C37.5438 36.325 38.1063 37.4781 39.2313 38.3594C40.3563 39.2406 42.4375 40.15 45.475 41.0875C48.025 41.875 49.9094 43.0094 51.1281 44.4906C52.3469 45.9719 52.9563 47.8375 52.9563 50.0875C52.9563 52.45 52.2625 54.3531 50.875 55.7969C49.4875 57.2406 47.4438 58.1688 44.7438 58.5812V63.25H41.3688Z" fill="#F57200"/>
</g>
</g>
</g>
</svg>
