<svg width="86" height="86" viewBox="0 0 86 86" fill="none" xmlns="http://www.w3.org/2000/svg">
<g id="Frame 50">
<rect width="86" height="86" rx="4" fill="#E8E8E8"/>
<g id="acute">
<mask id="mask0_423_493" style="mask-type:alpha" maskUnits="userSpaceOnUse" x="16" y="16" width="54" height="54">
<rect id="Bounding box" x="16" y="16" width="54" height="54" fill="#D9D9D9"/>
</mask>
<g mask="url(#mask0_423_493)">
<path id="acute_2" d="M49.75 61C44.725 61 40.4688 59.2563 36.9812 55.7688C33.4937 52.2812 31.75 48.025 31.75 43C31.75 37.975 33.4937 33.7188 36.9812 30.2313C40.4688 26.7437 44.725 25 49.75 25C54.775 25 59.0313 26.7437 62.5188 30.2313C66.0063 33.7188 67.75 37.975 67.75 43C67.75 48.025 66.0063 52.2812 62.5188 55.7688C59.0313 59.2563 54.775 61 49.75 61ZM49.7368 57.625C53.7956 57.625 57.25 56.2044 60.1 53.3632C62.95 50.5221 64.375 47.0721 64.375 43.0132C64.375 38.9544 62.9544 35.5 60.1132 32.65C57.2721 29.8 53.8221 28.375 49.7632 28.375C45.7044 28.375 42.25 29.7956 39.4 32.6368C36.55 35.4779 35.125 38.9279 35.125 42.9868C35.125 47.0456 36.5456 50.5 39.3868 53.35C42.2279 56.2 45.6779 57.625 49.7368 57.625ZM55.4875 51.0437L57.85 48.6813L51.4938 42.2688L51.4375 34H48.0625V43.675L55.4875 51.0437ZM20.5 35.6875V32.3125H29.5V35.6875H20.5ZM18.25 44.6875V41.3125H29.5V44.6875H18.25ZM20.5 53.6875V50.3125H29.5V53.6875H20.5Z" fill="#F57200"/>
</g>
</g>
</g>
</svg>
